<mxfile host="app.diagrams.net" modified="2022-08-07T09:52:48.998Z" agent="5.0 (Windows NT 10.0; Win64; x64) AppleWebKit/537.36 (KHTML, like Gecko) Chrome/104.0.0.0 Safari/537.36" etag="YHIywKgAcB3aL1N5HEkA" version="20.2.0" type="github">
  <diagram id="Uq9yMt9S4ATwteM-2Mbl" name="Page-1">
    <mxGraphModel dx="1422" dy="705" grid="1" gridSize="10" guides="1" tooltips="1" connect="1" arrows="1" fold="1" page="1" pageScale="1" pageWidth="850" pageHeight="1100" math="0" shadow="0">
      <root>
        <mxCell id="0" />
        <mxCell id="1" parent="0" />
        <mxCell id="fBHZpDKPESBAmvZvh5hl-7" value="" style="rounded=0;whiteSpace=wrap;html=1;fontSize=36;strokeWidth=2;" vertex="1" parent="1">
          <mxGeometry x="220" y="25" width="370" height="50" as="geometry" />
        </mxCell>
        <mxCell id="fBHZpDKPESBAmvZvh5hl-3" value="" style="sketch=0;html=1;aspect=fixed;strokeColor=none;shadow=0;align=center;verticalAlign=top;fillColor=#3B8DF1;shape=mxgraph.gcp2.play_start" vertex="1" parent="1">
          <mxGeometry x="360" y="123" width="60" height="60" as="geometry" />
        </mxCell>
        <mxCell id="fBHZpDKPESBAmvZvh5hl-9" style="edgeStyle=orthogonalEdgeStyle;rounded=0;orthogonalLoop=1;jettySize=auto;html=1;fontSize=36;" edge="1" parent="1" source="fBHZpDKPESBAmvZvh5hl-4">
          <mxGeometry relative="1" as="geometry">
            <mxPoint x="392" y="263" as="targetPoint" />
          </mxGeometry>
        </mxCell>
        <mxCell id="fBHZpDKPESBAmvZvh5hl-4" value="Start" style="text;html=1;align=center;verticalAlign=middle;resizable=0;points=[];autosize=1;strokeColor=none;fillColor=none;" vertex="1" parent="1">
          <mxGeometry x="367" y="180" width="50" height="30" as="geometry" />
        </mxCell>
        <mxCell id="fBHZpDKPESBAmvZvh5hl-5" value="&lt;font style=&quot;font-size: 24px;&quot;&gt;&lt;b&gt;&lt;i&gt;AS-IS Process&amp;nbsp;&lt;/i&gt;&lt;/b&gt;&lt;/font&gt;" style="text;html=1;align=center;verticalAlign=middle;resizable=0;points=[];autosize=1;strokeColor=none;fillColor=none;" vertex="1" parent="1">
          <mxGeometry x="650" y="60" width="190" height="40" as="geometry" />
        </mxCell>
        <mxCell id="fBHZpDKPESBAmvZvh5hl-6" value="&lt;b&gt;&lt;i&gt;&lt;font style=&quot;font-size: 36px;&quot;&gt;Competitive Pricing&lt;/font&gt;&lt;/i&gt;&lt;/b&gt;" style="text;html=1;align=center;verticalAlign=middle;resizable=0;points=[];autosize=1;strokeColor=none;fillColor=none;fontSize=24;" vertex="1" parent="1">
          <mxGeometry x="220" y="20" width="360" height="60" as="geometry" />
        </mxCell>
        <mxCell id="fBHZpDKPESBAmvZvh5hl-13" style="edgeStyle=orthogonalEdgeStyle;rounded=0;orthogonalLoop=1;jettySize=auto;html=1;entryX=0.5;entryY=0;entryDx=0;entryDy=0;fontSize=12;" edge="1" parent="1" source="fBHZpDKPESBAmvZvh5hl-8" target="fBHZpDKPESBAmvZvh5hl-12">
          <mxGeometry relative="1" as="geometry" />
        </mxCell>
        <mxCell id="fBHZpDKPESBAmvZvh5hl-8" value="" style="dashed=0;outlineConnect=0;html=1;align=center;labelPosition=center;verticalLabelPosition=bottom;verticalAlign=top;shape=mxgraph.weblogos.chrome;fontSize=36;strokeWidth=2;" vertex="1" parent="1">
          <mxGeometry x="356" y="267" width="74.8" height="75.4" as="geometry" />
        </mxCell>
        <mxCell id="fBHZpDKPESBAmvZvh5hl-11" value="Open Google Chrome :-&lt;br&gt;Navigate to the URL -&amp;nbsp;www.uprinting.com" style="text;html=1;align=center;verticalAlign=middle;resizable=0;points=[];autosize=1;strokeColor=none;fillColor=none;fontSize=12;" vertex="1" parent="1">
          <mxGeometry x="425" y="307.4" width="240" height="40" as="geometry" />
        </mxCell>
        <mxCell id="fBHZpDKPESBAmvZvh5hl-17" style="edgeStyle=orthogonalEdgeStyle;rounded=0;orthogonalLoop=1;jettySize=auto;html=1;fontSize=12;" edge="1" parent="1" source="fBHZpDKPESBAmvZvh5hl-12">
          <mxGeometry relative="1" as="geometry">
            <mxPoint x="393.4000000000001" y="533" as="targetPoint" />
          </mxGeometry>
        </mxCell>
        <mxCell id="fBHZpDKPESBAmvZvh5hl-12" value="" style="shape=image;html=1;verticalAlign=top;verticalLabelPosition=bottom;labelBackgroundColor=#ffffff;imageAspect=0;aspect=fixed;image=https://cdn1.iconfinder.com/data/icons/ionicons-sharp-vol-2/512/navigate-circle-sharp-128.png;fontSize=12;strokeWidth=2;" vertex="1" parent="1">
          <mxGeometry x="358.9" y="413" width="69" height="69" as="geometry" />
        </mxCell>
        <mxCell id="fBHZpDKPESBAmvZvh5hl-14" value="Go to &lt;b&gt;Custom level&amp;nbsp; by Navigating &lt;/b&gt;to URL&lt;b&gt; -&amp;nbsp;&lt;br&gt;https://www.uprinting.com/custom-labels.html&lt;/b&gt;" style="text;html=1;align=center;verticalAlign=middle;resizable=0;points=[];autosize=1;strokeColor=none;fillColor=none;fontSize=12;" vertex="1" parent="1">
          <mxGeometry x="417" y="443" width="290" height="40" as="geometry" />
        </mxCell>
        <mxCell id="fBHZpDKPESBAmvZvh5hl-19" style="edgeStyle=orthogonalEdgeStyle;rounded=0;orthogonalLoop=1;jettySize=auto;html=1;entryX=0.5;entryY=0;entryDx=0;entryDy=0;fontSize=12;" edge="1" parent="1" target="fBHZpDKPESBAmvZvh5hl-18">
          <mxGeometry relative="1" as="geometry">
            <mxPoint x="393.4000000000001" y="746" as="sourcePoint" />
          </mxGeometry>
        </mxCell>
        <mxCell id="fBHZpDKPESBAmvZvh5hl-40" style="edgeStyle=orthogonalEdgeStyle;rounded=0;orthogonalLoop=1;jettySize=auto;html=1;entryX=0.438;entryY=-0.034;entryDx=0;entryDy=0;entryPerimeter=0;fontSize=12;" edge="1" parent="1" source="fBHZpDKPESBAmvZvh5hl-15" target="fBHZpDKPESBAmvZvh5hl-38">
          <mxGeometry relative="1" as="geometry" />
        </mxCell>
        <mxCell id="fBHZpDKPESBAmvZvh5hl-15" value="" style="shape=image;html=1;verticalAlign=top;verticalLabelPosition=bottom;labelBackgroundColor=#ffffff;imageAspect=0;aspect=fixed;image=https://cdn2.iconfinder.com/data/icons/boxicons-regular-vol-3/24/bx-repeat-128.png;fontSize=12;strokeWidth=2;" vertex="1" parent="1">
          <mxGeometry x="348" y="523" width="84" height="84" as="geometry" />
        </mxCell>
        <mxCell id="fBHZpDKPESBAmvZvh5hl-16" value="&lt;b&gt;For Each Type :-&lt;/b&gt;&lt;br&gt;Cut-To-Size&lt;br&gt;Roll&lt;br&gt;Sheet&lt;br&gt;Kiss-Cut" style="text;html=1;align=center;verticalAlign=middle;resizable=0;points=[];autosize=1;strokeColor=none;fillColor=none;fontSize=12;" vertex="1" parent="1">
          <mxGeometry x="420" y="523" width="120" height="90" as="geometry" />
        </mxCell>
        <mxCell id="fBHZpDKPESBAmvZvh5hl-24" style="edgeStyle=orthogonalEdgeStyle;rounded=0;orthogonalLoop=1;jettySize=auto;html=1;entryX=0.5;entryY=0;entryDx=0;entryDy=0;fontSize=12;" edge="1" parent="1" source="fBHZpDKPESBAmvZvh5hl-18" target="fBHZpDKPESBAmvZvh5hl-23">
          <mxGeometry relative="1" as="geometry" />
        </mxCell>
        <mxCell id="fBHZpDKPESBAmvZvh5hl-18" value="" style="shape=image;html=1;verticalAlign=top;verticalLabelPosition=bottom;labelBackgroundColor=#ffffff;imageAspect=0;aspect=fixed;image=https://cdn1.iconfinder.com/data/icons/unicons-line-vol-6/24/square-shape-128.png;fontSize=12;strokeWidth=2;" vertex="1" parent="1">
          <mxGeometry x="360" y="802" width="67" height="67" as="geometry" />
        </mxCell>
        <mxCell id="fBHZpDKPESBAmvZvh5hl-20" value="Select the Shape :-&lt;br&gt;" style="text;html=1;align=center;verticalAlign=middle;resizable=0;points=[];autosize=1;strokeColor=none;fillColor=none;fontSize=12;" vertex="1" parent="1">
          <mxGeometry x="417" y="812" width="130" height="30" as="geometry" />
        </mxCell>
        <mxCell id="fBHZpDKPESBAmvZvh5hl-21" value="" style="shape=image;verticalLabelPosition=bottom;labelBackgroundColor=default;verticalAlign=top;aspect=fixed;imageAspect=0;image=data:image/png,iVBORw0KGgoAAAANSUhEUgAAAYwAAAIBCAYAAABa/4jRAAAgAElEQVR4nO3df3Db933n+ZdrOSE8mb2QaNQWnFPMI6bNKiSHHX5pO4KPbnmuofIPkfXuXMQWUmuKO9szLyTtuJ2bxODNEs79cRvFJHeku52VoFRiQs4kbgh1ViN4vdwVI7AZAXOmQU56jsGBwgm4NW1AnksisE1S3B/4QYA/vxS+4A/7+ZjhjPjF9/v5fkB78MLn/fl8v9+HfvzjH2cEAMAOHspkMgQGAGBbS0tL+rX97gQA4HAgMAAAphAYAABTCAwAgCkEBgDAFAIDAGAKgQEAMIXAAACYQmAAAEwhMAAAphAYAABTCAwAgCkEBgDAFAIDAGAKgQEAMIXAAACYcsSKRr7yla9odXXViqZMs9ls+trXvran5wSAjzNLAmN1dVVdXV1yOBxWNLej5eVlTU1N7cm5AABZlgSGJDkcDjmdTquaAwAcMMxhAABMITAKohoxDBlFPyNz+90naySvD8joDyi51Wvr3rdhGBq4vtneFlgJaKRSbZuSVKDfkDEW3cc+AIcTgSFJKwENGD2KDwUViUSyP5c8Gu8dUGBlvztXrqRuvxmSp6dT9i33ccl7I1Ly3kPD7op8qEYnfYpb3iqAf5wb0Z/0+vXO/cqdg8CQlPzBtELy6Nypoo/U5kFFIqPqPLp//bLE3DX55NWZ5l0c0zyo4JBLujotvocDB182LMb1ztxFPd9fudAgMAriiu80mlgJaKCkZBXViFE8CsmWtdaXsqJjm5RA5ka2KQFlyyYD15PZYw1DhlE62lnbvvG1knPPjMv1zFPbjC52I1fOKZx3ZGOgrPsbFUphue09V5UdvRS/ZqbtuZHcttLS4cay4cbS4pZ93dD+HpTkAIv9NJINi/ijLnX+0e9IlQyNjAVefPHFzLvvvmtFU6a8++67mRdffNG6Bt+byvS3tGRaWloyLV+aynywzT79gbVX3x5tybS09Gem3itsybzW0pJ57a3SQ98ebcm0jL69tuGt1zItLa9lCltyba8d90Fm6kvZ/hSfr6S94n6+N5XpL+lH8fai82zig0D/uveQ79/6c+f6ZOJ9FB/3QaC/6PdsGxvf08btG95jrk/F59vY9+zff/35Svq85fsobmerfgIHy/8Xfi3zL1taMi3/Y39maimTyWT+IfP2//XHmS+0tGS+cO5y5v/9uXXn+vGPf5xhhCFJRzs1GvHLI0mzPrk3+fYanfQpdMKroaKyVdNpr1wPcr7mQUUig2oqnP8ptZ+QxmfWfQc+69foqXVjg5WALl91yftK0ZzE0U6dOxuSb7L0+OQPphU62752ni2F5Oso+jbeOy7PpUjpueeuyTfrkb+/qLXmM/KeGNfl3Lfxzf5G9lOjG9/DBnZ1jpWer6nNI81O63bJyMkl7421v5v91Dl5FFJ8ObdhJa64XGp/0r7Wbo9nh9JaUgH/uFxDQ0Xlx+xxoeFrlORwYP00MqKeP8+OLLzfGlXnfy9Jn1DTn1/R/91bmZGGZddhHH5NGoxENCgpW9bo0XjvgOpujKrzaFLxmCws7UjZEoxbvtmiTWYuY1mOK6SQQh2GfOtfO1v8S1TXhiXvjZ3jIvtBPKrOo7n3fWLjnEdyKS4ppB5jfOPRz0hS9m8kZ92D/43mRmT0Fre/yzg+Wqc6hTT9g6Q6c+ETnRmXTnhVu+VBCcVnpdCsW8bw+tc8uzs/sEc2D4u8XGjoef35pYt6vl+6Mtaj33m0/PMSGJtq0uANr+Idvuy316PZDxU9Y1Hz+Q/Gs35FxppUCA/TDXjkLx6hbHqOaY2faFdwV5P2a+97+PpTG0cGJ7wKjm212qqcmn8+PLOrtTqPKvc32u16qmz/BzqKP/w98ke2WyGW2+tSRIO7WRgA7JfF8W3CIm9daLzi0N9842TZX3gpSZlSq7oTUuhuwtTe8aXtPjyzJRCd9SvSb+bb/zqOOrk0rultrxHJnmP7pbRbONqpoSGXQsPDJRPp9mN1m5SIitlV55QUi+8+Ouau5cKi3FVpSQVe9anuUtES4Z2CNfffdkM5EDioHmvX//Iv/+dtwiIvFxp/3q7es+2WVEcIDCm3Oqd4FU32gydUKM3ka+E9RfMaUY10+BQqaSkXLG/eLnxoJq8PqOdq8T4bP1iT14dLS1PbOdqpc2el8d7SVT/RsaI5l5Xbmp71qP0BvzHbTw3JeyIkX0fROZrPZLe9un5l09oKrabTXrlmfRouWmEUHdu44igfvMmV3HZHnVzFcxGKaqR3Y+nLrPHe3ayQ2uy/rbIjHC7uw0H0sEPt/9tf7hAWeZ9QU+//qZ7mT1hyakpSkp56JSjvq+7S+vz6EUDzoIJDcbl7DWX38sh/w6t4x3RRS3Z1jvkVN3rkNrIFJtdQUMGhYbnvru3V1O+XZ4d9ttPUH1HwsQG5DaOkv35FJTUpOumThoImJru3YlfnK15Nd/jUYyhX/spOTNeNGYV+Z/vu17nlpHTUnl08cEOlJaETXvlPF7Xb45Gvt0fGValQWjvaqaGh6dK/bcQvGZd31+1cUJaW67LzMj1j7VuP6JoHFblRp4EOQ2t/UY/8l5T7iwKQpIcymUym3EZeeuklvfDCC3t288FYLKaLFy/qG9/4xp6cb0srAQ10TKu97FKKhXK1//LLO4dPdMxQjzaW+rbaDsC8paUl60YYy8vLeuihh6xqbsdzYQvNg4pE9rsT+6OpzSP1XlbgdFFYzo2o56rkuURYAOWyJDCqqqr2/PkUVVVVe3o+HALNg4pcGpFRsuS4aOUVgLJYUpICAHy0LS0tsUoKAGAOgQEAMIXAAACYQmAAAEwhMAAAphAYAABTCAwAgCkEBgDAFAIDAGAKgQEAMIXAAACYQmAAAEwhMAAAphAYAABTCAwAgCkEBgDAlCNLS0v73QcAwCHACAMAYAqPaAUAmHKk+BeyAwCQ99BDD5X8fmS7FwEAyGMOAwBgCoEBADCFwAAAmEJgAABMITAAAKYQGAAAUwgMAIApBAYAwBQCAwBgCoEBADCFwAAAmEJgAABMITAAAKYQGAAAUwgMAIApBAYAwBQCAwBgCoEBADDlyM67bO8rX/mKVldXreiLaTabTV/72tf29JwAcKD97Gf68J8+oU//s09U7BRlB8bq6qq6urrkcDis6M+OlpeXNTU1tSfnAoCD7MO7s/rWf7qiC+8v6O/+Kb/1U/qC/ZRe/r3n9dw//5Sl5ys7MCTJ4XDI6XRa0RQAYCf/lNT0t1/Sn9z9kf5+w4s/098mv61/8fq39YXf+jf61plnVWfRoIM5DAA4TP5pWX/970/rf9o0LEr97X/733Xi0t8o/k877GgSgZGTvD4gwzDWfvoDSu53p8qUvD6w+ftYCWig+L1W+j3PjWhkrhINm5B7r/t2fsBi8eB5/Yvkz0zv//ep/0N/8r0fWXJuAkNSdMyQe7hO/khEkUhEkUhQXvnkHovud9fKkNTtN0Py9HTKvsUerqFg7v1GFIn45Zn1yW2MyNp3nVTAP25pi8DH1mpEl9+a3Xm/X/ttffWJf6NXcxPgf/t3V/TXFnwbJDAU1fRVyTV0Rk2FbXZ1jkUU6W/a5rgDbu6afPLqTLPZA5o0eMMrl8Y1zbdx4EBafeu/6ms7lZd+7bf16h/+B736B8/qqz3n9dVPSNJ/1etz5ScGgZETupvYYY+kAv1F5ZuxqKJjhgau5/8jRDWySekjOpbdd8t21n+jnxvJbisuGxUfPzdSUkZaO/+6886My/XMU1uOLnYjOlbc3wEFVtbtsL7ElS9tzY3IMNzyzUrjvbt9L2t/z5Lzbxj1ZffbUF7bdqS0w38D4ID6u+W/Lfz7N2u+oh/+q3+nV6uKdsiFxVd/NzfLnf5H5S96+PZ7/638DmTK9OKLL2befffdcpsx7d133828+OKLlrb59mhLpqUl+/PaW5vt8UFm6kstmZYvTWU+yG9667VMS0tLpj+Q3/J25rVNjn97tCXTMvp2STtrx+Re36TdlpbXMm9n1nnrtUxLS39m6r3SfhW3l8lkMpn3pjL9mx1f8vr647L9L+nLZv17byrTX9yHTdr6INC/498l+16K+phrZ22/XH+Kt204V3aftd9z/51Gi975hnY32Wd9X4ADavZbT2bkezKj89/K/PBXuY33wplX/+2TGX3tbObV/+cf1nZeCWW++m9z+/uezOhiMHOvzPMzwpDU1B9RcMglqeibcPEE8Nw1+WZd8r5SNB/QfEbeE7s9U7bUNXpq7Xt/U5tHmp3W7ZJv7S55bwyqtCCWnQtwDQ2p82hRez0ehYavlXxDTv5gWqGz7dqpoBYadhd9y+7R+Fm/ImNF73EloMtX173vo506dzYk32T2jNFJn0InvBoqek/2U6Ml73FTzYOKRIre49Gn1H5CGp8p/a7vGgpqMF9WO9qpc2eLRoMrccXlUvuT+XNl/x66Or31iGHumnyzHvmLy43NZ+Q9Ma7LW4zWgIOi6uHcyOH+3+iv3/7H7L8/beirvf9B/7mzaGTx/qxe+asv62vF11T/dw59uszzW3IdxkeB/dSoIqey/05eH5B72Cf3WJ0i/U1KLsWlE+166uj2bZg2NyKjt3gi2GXioITis1Jo1i1jeP1rnqJ/R3VtWPLe2Hn+xTUU1Ogpu6JjhnquuuQ9ve6Y5bhCCinUYci3/uCzkpRUPCbJWfeApa+kAv3ZklXBbi7nOVqnOoU0/YOkOnMBFZ0Zl054VbvVGZfikkLqMTZOxLue2cW5gX1Q95u/J737hqS7euU//qmkv8qGxKcb1J5Pg83CQtJz9t8q+/wExibsp0blv2uoJxZXUk1K3A1Jareg5fwHpEveG5HsSGFuREZv3HQLnkuRtW/cm5mb1viJdgV3EW5N/UF5Y275Xg3oqbH1q6o88kfWj3byyvhGng/Ns35FxppU+NvsqpHsRP1AR3GIeuSPbL0yTJJ0wqvghvcJHHyfbnDp3Pff0GVJG0JD2jIspAZ1/E75/8dTkjKh9jGXNBvXTtPikhRf2uZDNF/aujFaVFYy3QvVbVKyKZUtW223lHZzdnW+4pVr1qfh4rKMo26HVVN21TklxeK7jI7cUtuz/jJXoiUVeNWnukuRouXBW4VbrsfH6jYpAQKHhP1Z9f3zx4o2ZEPja2/94zZhIf3u/zCgP3ls4/bdIjByK3VKVujMjajnqgofvPZT5+TRuHqKVuhEx9aVUnIf6KE3bxc+PJPXB9RztWgXR51cCim+XGhFI71mr1HI1+d7SldizY2srRxaua3pWY/aTS+lLXK0U0NDLoWG3Wvt5+YMxntLVxFFx9ZWgzWd3hg0pavHsrJBmlRyJfte1gdN8vrwur+neYV5JzOrnprPyHsiJN+rxRcpJhXo32T1F3AA/e4fnde3aorv9XFXr/zHp/XQv988LFT1x7pwqkFVm7y0Wx/7klTScUaRS5LRW1zWKCoZScqXPuIdPTJyAeC5lC3jTBdasqtzzK+40SO3kS2suIaCCg4Ny303t8vRTg0NTcvdaygbEx75I37JuGyus82Dityo00CHIaOw0SP/JWU/ICd90lBwx8nurdhPDcn7plu+XkPKlb6a+iMKPjYgt7F2Rp31y6+opCbpaKdGb6i0LHTCK//p/M5NOjPkkns493quHNTU75dnu7+VGbmALC2ZRTVi9KhnrH2L0Ut24UHdmFE4d/b8fp1bTkpHKVThgPs1h/747F8pfe1fqXeHK75/85/9a904+2f6XYvuQfhQJpPJlNPASy+9pBdeeGHPbj4Yi8V08eJFfeMb39iT820tW3Offia484qgvZCbC3mwctfhFB0z1KONZa2ttgMfNX8f/qZe+S/f0uV/LA2O3zxyQv/rE/9afU//tj5tYR3JkhHG8vKyHnroISuaMnUubKJ5UJHIfndibzW1eaTeywqcLgrJfDnxEmGBj77fbP0zXWr9M1362c/04S9zG3+tcs/EKDswqqqq9vz5FFVVVlTjcOg1DypyaURGybLf9eVE4GPgU58q+xoLM8ouSQEAPh5YJQUAMIXAAACYQmAAAEwhMAAAphAYAABTCAwAgCkEBgDAFAIDAGAKgQEAMIXAAACYQmAAAEwhMAAAphAYAABTCAwAgCkEBgDAFAIDAGAKgQEAMIXAAACYcmRpaWm/+wAAOAR4pjcAwBRKUgAAUwgMAIApBAYAwBQCAwBgCoEBADCFwAAAmEJgAABMITAAAKYQGAAAUwgMAIApBAYAwBQCAwBgCoEBADCFwAAAmEJgAABMObJXJ/rFL36ht956S++8845+8pOf6MMPP9QvfvELVVVVyW6369ixYzp+/Lg+//nP71WXAAC7UPEHKGUyGd28eVO3bt3SI488ouPHj+uzn/2sqqur9cgjj2h1dVXvv/++4vG4FhYW9JnPfEa///u/ryeffLKS3QIA7FJFA2NxcVHf+c539Ktf/UrPPPOMnnjiiW33//nPf67bt2/rjTfe0PHjx/XFL35Rn/rUpyrVPQDALlQsMKLRqL75zW/qC1/4gp577jk9/PDDpo9977339N3vflc//elPde7cOX3mM5+pRBcBALtQkcBYXFzUhQsX9Ad/8Af6wz/8wwdux+/3K5lMqr+/X5/85Cct7CEAYLcsXyWVyWT0ne98R1/4whfKCgtJ+tM//VM9/PDDev311y3qHQDgQVkeGDdv3tSvfvUrPffcc2W39fDDD+u5555TJBLRD3/4Qwt6BwB4UJYGxi9+8QvdunVLzzzzzK7mLLbz2GOP6YknntD3v/99S9rb1kpAA4Yho+RnQIGVtV2S1wdkGIZG5so/XXTMkNEfULL8pgCg4iwNjLfeekuPPPLIjquhduvJJ5/UO++8o/fff9/SdotFxwwZHT5pKKhIJFL4CQ5Jvo61gEjcDUlyqc5Rsa4AwIFk6YV777zzjo4fP25lk5Kkz372s7Lb7frRj35UkRVTyesD6rkqeS5FNNhc+pr91Kgip9Z+b+qPKNJveRcA4MCzdITxk5/8RJ/97GetbLLg2LFjSiQSFWg5qmvDIemsf0NYbGpupLRMNTciwxhRtLicNRZdt39Riav4tS3bX9t/4DoFKwAHg6UjjA8//FDV1dVWNllQXV2t5eVl6xteiSsuydPWVEYj4+rp8MgfiWi0ePPciIze8ZKRS3TM0MjcxpHM2v5xeW9E1HlUkpIK9Ls1oKBGT9nL6B8AlM/ySe9HHnnEyiYLHnnkEf3yl7+0vuHluEJlN+KS98agSiMnqYB/fMPIpal/i7DI7e8aGsqFhSTZ1dnjUWj4mnYYlwBAxVk6wqiqqtLq6qqVTRasrq5W5uI9R51c1rcqKaH4rOR6pnZX+4dm3TKG17/msbhvALB7lgaG3W6v2Eqm999/X7/+679ufcNH61QnaXwmqsHmcspS1ths4h0ADgJLS1LHjh1TPB63ssmCu3fv6tixYxVouUlnhlzS1csl11uUr1Z1J6TQXbMT9dn9x2coPgE4mCwNjOPHj2thYUE///nPrWxWCwsLun//vj73uc9Z2m6e/dSQvCdC8nVsXJUUHTMe8EK97PyDrvYUHZtUoH+rtjbbX9mJ8J1WVgHAHrC0JPX5z39en/nMZ3T79m253W7L2g2FQmptbdWjjz5qWZul7Ooci6hzbkRG77o5hBNeBSOdeqA1Ss2DilySjF5D4/ltZ/0KOpLSZi02Dypyo04DHYaMwkaP/JekqKT9L5gB+Diz/G61P/jBD/Sd73xHf/mXf6nf+I3fKLu9SCSib3/72/qLv/gL/dZv/ZYFPQQAPAjLbz745JNP6vjx4/rud79bdlvLy8t6/fXXdfLkScICAPaZ5YEhSV/84hf105/+VH6/X7/61a8eqI3l5WVduXJFx48f17PPPmtxDwEAu1WxJ+69//77+uY3v1m4Rfljjz1m+thIJKLXX39dx48f15kzZyrRPQDALlX0md7/8A//oNdff12RSERPPPGEnnzyyW3vNbWwsKBQKKR33nlHJ0+eZGQBAAdIRQMj74c//KG+//3v65133pHdbtexY8dUXV2tRx55RKurq3r//fd19+5d3b9/X62trfq93/s95iwA4IDZk8DIe//99/WjH/1IiURCH374oX75y1/qk5/8ZCFEPve5z1Vw6SwAoBx7GhgAgMOrIqukAAAfPQQGAMAUAgMAYAqBAQAwhcAAAJhCYAAATCEwAACmEBgAAFMIDACAKQQGAMAUAgMAYAqBAQAwhcAAAJhCYAAATDmytLS0330AABwCPA8DAGAKJSkAgCkEBgDAFAIDAGAKgQEAMIXAAACYQmAAAEwhMAAAphAYAABTCAwAgCkEBgDAFAIDAGAKgQEAMIXAAACYQmAAAEwhMAAAphAYAABTjuzFSRKJhBYXF7W4uKh0Oq1EIqF0Oi1Jstlsqq2tlc1mU319verr61VbW7sX3QIA7ELFnriXSqUUDocVDoeVSqVUXV0tp9Opmpoa2Ww2ORwOSdLy8rLS6bRSqZRisZju3bunmpoatba2qrW1VTU1NZXoHgBglyoSGMFgUDMzM6qqqtLjjz++qw/+fNDcuXNHq6uramtrk9vttrqLAIBdsjQw0um0Ll68qGQyqZMnT6qtra2s9mZmZnTz5k3Z7Xa98MILstlsFvUUALBblgVGIpHQxYsXVV1drb6+Pss+3NPptC5cuKB79+7phRdeYH4DAPaJJYGRTqd1/vx5ORwOdXd3Wz4SSKfT8vv9unfvnr785S8z0gCAfWDJstqJiQllMpmKhIWUXUnV09OjTCajyclJy9svWAlowDBkFP/0B5SsyMmSCvQbMsaiFWkdAKxWdmCkUiktLCxULCzybDaburu7NT8/r1QqZXn70TFDRodPGgoqEokUfvxOn9yGoYHrlYkNADgsyg6MYDAoh8Mhp9NpRX+25XQ65XA4FAwGLW03eX1APVdd8t6IaPSUveS1pv6IgkMuhYaHFVix9LQAcKhYMsJobGy0oi+mNDY2WjzCiOracEg6e06dRzffw35qSN4TIfkmoyqUkjYpVSWvD8gwRlQoMs2NlJS3GKUAOMzKDozFxcXCRXh7weFwaHFx0boGV+KKS/K0NW2zk111TklXpxWVXZ2veOWandbtkhFHNnhcQ2fUJGXDolfy58tbN7zSsFsjc9Z1HQD20qG7l9Tq6qqqqqqsa3A5rpCJ3Wofc639cvQptRdGHDlz0xqXR+fyJa3mQUUig2oqOUYan2GSG8DhVHZg1NfXa3l52Yq+mJJKpay9FsNRJ9fOeylxtzhW7Ors8eRGHJKUVMA/Lp1tV+k4JVe+MgwZhlu+Weu6DQB7rezAqKmp0cLCghV9MWV+ft7a+0sdrVOddvrmn1Q8ptJAaG6XR+O6fD0prdzW9KxL3tNFcTE3kg0Jpz+34ioo7wnrug0Ae63swHC73UokEorFYlb0Z1uxWEzLy8sW31uqSWeGXNLVy1uugkpeH5ZvfSDkjgu9eVuBSZ9CJ9r1VGHSPD/i8CvSv93cCAAcHpaMMBoaGjQ5OVm4ZXklpNNpTU5OqqGhwfI72NpPjcp/NiRfx8aVTNExQ+7hkFxDQxtWUdmfbJdr1iffVcnT06m1Bbm5SfJYvLCSKhs6lnYbAPaUJZPe3d3dymQyunLlSkVCI51O68qVK4WrySuhqX9tJVPxUtieqx75Ixuvz5BUmMiWPGpvXt+eX57Z7EV/hmFoWEMKDpmZLQGAg8nSmw9euHDB8jvLFt8Bt6+vj5sPAsA+sfz25vk7y7rd7rJvb55/robVd8AFAOxexR6gdOvWLT366KO7fnJe8ZP67t+/r6effpoHKAHAAVDxR7TeuXOn8NjV2trawlXh+XtP5VdXLS8vK5FIFB7n+vjjj6utrY1RBQAcEBULjGKJREKLi4uKxWJKp9NKJBJaXV2VJFVVVam2tlY2m01Op1P19fXMUwDAAbQngQEAOPwO3b2kAAD7g8AAAJhCYAAATCEwAACmEBgAAFMIDACAKQQGAMAUAgMAYAqBAQAwhcAAAJhCYAAATCEwAACmEBgAAFMIDACAKQQGAMAUAgMAYMqRpaWl/e4DAOAQ4Il7AABTKEkBAEwhMAAAphAYAABTCAwAgCkEBgDAFAIDAGAKgQEAMIXAAACYQmAAAEwhMAAAphAYAABTCAwAgClH9upEqVRKCwsLWlxcVCqVUiKRkCTV1taqpqZG9fX1amhoUE1NzV51CQCwCxW/W20qlVIwGFQ4HFZ1dbUaGxtVW1ur6upqSdK9e/eUSCQ0Pz+ve/fuqbW1VV1dXbLZbJXsFgBglyoaGLFYTFeuXJHD4ZDb7ZbT6dxx/2AwqOXlZT3//PM77g8A2DsVC4xwOKyJiQm1tbWpq6trV8dOTU1pZmZG3d3dam1trUT3AAC7VJE5jEQioampqQf+wO/q6lJtba2+973vyeFwqLa2tgK9BADsRkVWSfn9fjU0NJQ1OmhtbVVjY6OuXLliYc8AAA/K8sAIh8NKp9O7LkNtpqurS/fv31c4HLagZwCAclgeGLdu3dLTTz9tySonm82mp59+WjMzMxb0DABQDksDI5VKaXl52dKJ6tbWViUSCaVSKcvaBADsnuWBUVVVZenFd/m2CAwA2F+WBsbi4mJFVjTV19drcXHR8nY3k7w+IMMwNHA9aW3DcyMyjAEFVqxtFgD2CveSKhHVteGQJCn05m1ZHBkAcKgRGMXmpjUul7yXvHLN+nRtbr87BAAHB4FRkFTAPy6dPafO5qfUfkIan4lu3Ov6gIz+gJJzIzIMY135KqlAv1HYvmkJajmgAWNtnxFCCcAhQWDkrdzW9KzkaWuSZFdnj0e6ennzOYdZn9z+OgUjEUUiEY2esisbFm755C1sj9xo1/SrgaLSVkg+vzSUez045NJ4L/MaAA4HAiMnOulTSB61N+c2NLfLo5Cmf7DZTIZH/rFO2Ys3zV2Tb9Yl7ytF2492arRkv9LX7afOyRGH3pEAABpwSURBVKOQ4stWvxsAsB6BIUmKavqq5Bo6o6bCtia1n5VCw9e0sTC1UXIpLqlOdUcr1kkA2Fd79gClgyx5/bLGJWnYLWN4/avjmp4bVFPzxuMA4OOEwFBSt98MSWf9ivQ3bXgt0O+Wzx/QmfUlqHXsx+okxRVfkZoYZQD4CKIkNXdNvsJk93q5ye/Zad3eaWK6+Yy8J0LyFU9yz41kV1RZ22MA2Bcf88CIaqR3XDrh1ZmtSk65ye+SINiUXZ1jQXnlkzu/bLY3Lm/PU9Z3GwD2gaVP3AsGg4rFYurr67OqSUnShQsX5HQ65Xa7LW0XAGDex3yEAQAwi8AAAJhCYAAATCEwAACmEBgAAFMIDACAKZZf6b26umr50/FWV1ctbQ8AsHuWBobNZlMikdCFCxesbFaS1NraanmbAADzLL1wDwDw0cUcBgDAFAIDAGAKgQEAMIXAAACYQmAAAEwhMAAAphAYAABTCAwAgCkEBgDAFAIDAGAKgQEAMIXAAACYcmRpaWm/+wAAOAS4Wy0AwBRKUgAAUwgMAIApBAYAwBQCAwBgCoEBADCFwAAAmEJgAABMITAAAKYQGAAAUwgMAIApBAYAwBQCAwBgypH9OGksFlMgEJAkdXZ2yul07kc3AAC7sKd3q02lUpqcnFQsFlNra6skKRwOy+l06vTp06qpqdmrrgAAdmlPAiOdTmtqakrhcFj19fVyu92FUUUsFlMwGNTi4qLa2trkdrtls9kq3SUAwC5VPDCCwaBmZmZUVVWlkydPFkYW64XDYd28eVOrq6uF4AAAHBwVC4xwOKxgMKj79+/r6aefNh0AwWBQt27d0qOPPiq3271lwAAA9pblgRGLxfTGG28oFos9cIkpnU4XRiZOp1PPPvssE+MAsM8sC4xUKqVAIKD5+Xk1NDSoq6ur7EnsVCqlqakpLSwsqLGxUZ2dnUyMA8A+sSQw5ufndeXKFTkcDnV1dVk+GojFYpqamtLy8rKef/55NTY2Wto+AGBnlly4t7y8LIfDoZdffrkipSOn06mXX35ZDodDy8vLlrcPANiZZVd678VSWJbbAsD+4dYgkqJjhgxjRNFNX00q0G/IGNv8VQD4uCAwAACmEBgAAFMIjAe1EtCAYcjI/+RLVvnt/QEli3bPlr0GFFgpbNFI8fHr9l87ZuPPyFx+j1y5bNPX1s4xMreuLcprAB4AgfEgVgIa6PCp7lJEkUj2x6+e7Afx0U6N3vDKNevT8PVcBMyNqOeqS94bo+o8KmU/yHukwvFBeeWTu+iDPDpmqCfmVTDXfnDIJckjfySiwWYpGxZu+bS2T+SSR+O9hgaul0bPeK+h6bbcPje8cl3t2bAPAOyEwCgYV88m3+YNwy3fbOme0UmfQmf9uQ/urKbTXrmuXs6OII52amjIpdDwsAIrUY30jss1NJQLC0lq0mDhg1+S7HrqGZd0dTo38Z5UPCa5nnlK9vwep87Jo3FN50cQc9fkm3XJ+0pnYR81Dyo45FLozdsloxXXUHDtXEc7de6sFLqbKPcPBuBjZl+eh3EweeSPDKppw/b8N/m13+MxSbM9Mq6u39el9ty/7KdG5b9rqKcjJJ31K3LKvn5nJa8PyD0cKtpSlz9adU5lP/hP5QJhblrjcsnryB27FJdOtOupo6Vt2o/VSbPTur3SWRRQAFA+AuMBuYaCGt0kBNbkgkWSYnEl1bQ2EsiVpMblkT8yqiblw2Pt6Kb+oLz9brmNtajyXIoUQiBxNyQV4gkAKo+S1K4VffvfZq/k9WH5Zj3yR/zyzJbOTySvX86FxWYjmqLjnf7CHEmkpIQlNbV5ciOJdcctxSXVqY7RBQCLERgPoOn0ukltKTsRnl/ptBLQ8HBInkuDalKTBi95pKs9hRVM9mN1kuKKr6wdO1xSmsq52rP1CqnmM/KeCMn3atHqqrkRuYdDcg2d2TKIAOBBUZJ6EEc7NRqp04jhllEoI7nkvXROif8yIvdfjJdONDcPyn92XD29hnQposHmQfnPGurpMLJzIye8Ct7wargjnjsgqdtvhuS5VDqqiI4Z6ukdUXtkUE2yq3MsKG1Stio+BgCsYsndaoPBoBYWFvTlL3/Zij5t6etf/7oaGxs/+k/jmxuR0auNJauttgPAHrCkJOVwOJRIJHT+/HnFYrGdD9ilWCym8+fPF+6K+5HX3C6PxnW55FqJ7PJcnW0nLADsC0sfoGT1w45SqZQmJycVi8UseyjT4ZFfSbVm55VZAFA5FXlEazAY1OLioiWPaK2vr5fb7eYRrQCwzywPjLxwOKybN29qdXW1EBxm5IOiqqpKJ0+eVGtrayW6BwDYpYoFRl4wGNStW7f06KOPyu12bxkA4XBYwWBQ9+/f19NPP/3Rn9gGgEOm4oEhlZaYnE6nnn322UKJKRaL6Y033lAsFnvgEhYAoPL2JDDyUqmUJiYmtLi4WBhphMNh1dfXq7u7+2M0oQ0Ah8+eBkZeLBbT1NSUJKmrq4sJbQA4BPYlMAAAhw/3kgIAmEJgAABMITAAAKYQGAAAUwgMAIApBAYAwBQCAwBgCoEBADCFwAAAmEJgAABMITAAAKYQGAAAU44sLS3tdx8AAIcAd6sFAJhCSQoAYAqBAQAwhcAAAJhCYAAATCEwAACmEBgAAFMIDACAKQQGAMAUAgMAYAqBAQAwhcAAAJhCYAAATCEwAACmHLG6wXQ6rXA4rIWFBSUSCaXTadXU1Ki2tlYNDQ1qaGiQzWbbcMzCwkLhmFQqJZvNJqfTqfr6erW2tm44BgCwtyy9vfn8/LwmJydVVVWlxsZGNTQ0SMoGwuLiou7cuaNHH31Up0+fltPplCTFYjFNTk7q/v37evzxx1VfX18Ih4WFBc3Pz2t1dVWnT59WY2OjVV0FAOySZYERDoc1MTGhrq4utbW1bbnf1NSUZmZm1N3dLUmamJhQW1uburq6tjxmZmZGU1NT6u7uVmtrqxXdBQDskiUlqfn5eU1MTOj555/fcRTQ1dWl2tpaTUxMSJKpEGhra1N1dbWuXLlSGL0AAPaWJYExNTUlt9tt+oO8tbVVqVSq8G8zGhsb5Xa7FQgECAwA2Adlr5IKh8OSJLfbvavj3G73ro9pa2tTJpMpnBMAsHfKDoz5+fk9+8Zvs9nU2Nio+fn5PTkfAGBN2YERi8UKq6H2Qn19vZaXl/fsfACArLIDY3V11Yp+mGaz2QrzHwCAvcOV3pKiY4YMY0TRTV9NKtBvyBjb/NXK9Wmr/gDA/ig7MKqrq3Xv3j0r+mLKvXv3VF1dvWfn2xcrAV2+ut+dAIBSZQeG0+lUIpGwoi+mJBKJwlXiAIC9Y0lg7OUy1zt37hyMwFgJaMAwZOR/NpSscqWswj7rSkxzI9ltxe2MRbPlsQ6fQhpXT277yNwevi8A2ELZgdHa2rpn10bkz7HvtwdZCWigw6e6SxFFItkfv3qKQiOpQL9b088E114/O66e/oCSJQ2Nq6cjrnO5fSL9TWrqjyhyySPJI39u+2Dznr9DANjAkiu9T548qampqU3vRGuVdDqtqakpnTx5siLtS+PqMca3frloUBOd9Cl01q/Rog/yptNeuTouK3B6VJ1H7eoci6iz6PCmNo90dVq3VzrVeTS/1SXvjUE1WfguAKBSLAmMtra2wp1qn3/+eSua3GBiYkIOh2PbGxuWxyN/ZLMP7+xowVf0ezwmabZHxoaJaZfai3+dG5HRO17yOgAcVpY9D6O7u1tf//rXNTExUbgTrVUmJiYUi8X08ssvW9puOVxDQY2esm/xai5kZl3y3ohkRxRzIzJ643vZRQCwlGXXYdTU1Kivr0/z8/MKBoNWNauJiQnNz8+rr69PNTU1lrX74Oyqc0qhN2+vm48oMnctFxajReUnADjcLL1wr7a2Vn19fbp165Ylk+DhcLgQFrW1tRb00BpNp71yzfo0fL0oMlYCGshPajvq5FJI8cIdTKIa6d1mfmRTccVXJK0ktw4mANhDll/pnQ+N733ve2WFRjgc1ve+970DFxaSpKOdGo34VTfsXls22zGt9p46JVayrw8NuTTem19SO632iF8es+03n5H3REi+DkNGh7s0mABgn1j6iNZiiURCFy5c0B/90R/tehnsgQ4LAPiYqlhgSGuhcfLkSdOrm6ampnTnzh3CAgAOmIoGhrQWGo2NjTuuniqe4CYsAOBgqfjdavNzGvnnfm+FsACAg21Pbm++U2gQFgBw8O3Z8zC2Cg3CAgAOh4rPYaxXPKchibAAgENizwNDklKplPx+vySpr6+vYjcsBABYZ18CQ8refVYSYQEAh8S+BQYA4HDZs0lvAMDhRmAAAEwhMAAAphAYAABTCAwAgCkEBgDAFAIDAGAKgQEAMIXAAACYQmAAAEwhMAAAphAYAABTjiwtLe13HwAAhwB3qwUAmEJJCgBgCoEBADCFwAAAmEJgAABMITAAAKYQGAAAUwgMAIApBAYAwBQCAwBgCoEBADCFwAAAmEJgAABM2bfAmJ+f1/z8/H6dHgCwS0f246ThcFgTExOSpO7ubrW2tu5HNwAAu1DRwAiHw4rFYmpsbFRDQ4MkKZFIaGJiQl1dXZKkqakpORwO1dbWSsqOPBYWFuR0OgkSADhAKhoYd+7cUSqVUjgcls1mk9PpVCwWU2trq9ra2iRlA+TixYuF19LptKqrq5VKpQgMADhAKhoYi4uLeuGFF1RbW6tYLKaFhQW1trYWRhdStiQ1NTWldDqt06dPq7GxUbFYTBcvXqxk1wAAu1SxwIjFYpKk2tpa2Ww2NTY2qrGxcdN9iwMkf0y+DafTWakuAgB2oSKrpGKxmMLhsBwOh2w2266Pt9lscjgcCofDWlxcrEAPAQC7ZdkzvcPhcGGSW5IcDoeefvrpB56HCIfDunXrlpaXlyWpMAnOvAYA7A/LAmNiYkKxWEzd3d2FMpQV0ul0YWWV0+lUd3e3Je0CAHbHspJUQ0OD7t27J6fTaVlYSNnyVG1tre7du1dYmgsA2HuWBUZjY6OqqqoqcvV2LBZTVVXVlpPmVkheH5BhGGs//QElS/dQYGz9trLOqEC/IWMsalmLD2RuRCNz+9sFAIeDpZPeTqdTCwsLVjYpSVpYWKhoWETHDLmH6+SPRBSJRBSJBOWVT+7iD/O5a/LFKtaFfZJUwD++350AcEhYFhiJREKLi4uWlqPybDabFhYWlEgkLG9bimr6quQaOqOmwja7OsciivQ3bXMcAHy8WBIY4XBY58+fV0NDw4ZrKqzQ1dWlhoYGXbx4UeFw2PL2JSl0d6swypWOeselWZ/chiHDGFBgZd3rhXLWiIqLTMnrA9ny1txIYZ+B6+uKXSXlsNLjo2OblK3mRkr3y/++EtBAvp38MUXnLTn33IgMwy3frDTeu+4YANhMpkzRaDTz4osvZm7dulVuUzu6detW5sUXX8xEo1FL2317tCXT0pL9ee2tzff5INCfafnSVOaD0q2ZqS+1ZPoDa1vfHm0p2e+DQH+27S2ObWkpPj63rWjft0dbMi2jb5d25q3XMi0tr2XeLvm9pXRbJpPJvDeV6S95Tx9kpr7Un5l6r9DbzGvbvGcAKMbzMCQ19UcUHHJJKvq2vWHSezPZ0tXoKftaW20eaXZat1eK9/PIP9Yp+4bjJZ31Fx1vV2fPZseb4ZL3xqBKimjLcYXkUp2juL+j6jy627YBwIKSVGNjo7q7u3Xz5s3CLcsrYWJiQjdv3lR3d3dFJsDtp0ZzE9658JhdN+m9neKyT2+Zk8iOOrkUUny5vGYkSc1n5D0Rkq9jfRkNAHbPkhFGa2ur+vr6ND8/r6mpKSuaLDE1NaX5+Xn19fXtyZXe9lOj8p+VFIvvMMrIz2/E5b2RW2F1yVPx/pmXm7yPRBQcUi44SudIAMAsy0pStbW1cjqdSqfTVjVZkE6n1djYWLgp4YExd02+WZe8Nyws82woI8lEcO3MfmpUkRteuTSuaa67APAALJ3DiMViFbkau6GhoSLXd0gqlJNKVi7NjajnquTpWTfvMBtXQpJWktkP8A3lo6hGdluSunq5qFSUO/7suUIA1T7mKp3TWAlowOw5VgIaKJqLSf5gWiF51N5cult8KSkpqSQlKwDbsOz25vPz81pdXa3I/EJ+5DI/P295+0nHGUUuSUavW8ZwfqtL3huRklGD/dQ5eYZ71GNkP6w9lyIabO7U0NC03L2Gclvlj/gl47Lp87uGzkmvGjJmcxvO+kuu/7CfGpX/rqGeDkM+STrhVfCGV8Md8Z3f27JUJ5/chq/ofRVPjDfpzJBL7uHcez/hVXCryXkAH3uW3nxwcXFR3d3dD3xb882k02ktLy9rYmJC9fX13HwQAPaJZSMMp9OpVCqlCxcuSMrOabS1tZV1e/NgMKhUKiVJqq+v52FKALCPLBthFMs/QGl5eVlf/vKXH6gNn89XeAYGQQEA+68iF+7lP+gTicQDrZpKp9O6d+8eYQEAB0jFnumd/6BPJBKqra3V4uKi5ufnZbPZNtxvampqqrB0tr6+vnCTQcICAA6OigWGlJ13mJycVCqVKjzP4s6dO0qn04XJ64mJCc3Pz8vpdOrb3/62VldXVVNTo/r6+kp2DQCwSxUNjMcff1yxWEydnZ2F5bBtbW06f/584SK8/BXcxb8vLCwwugCAA6Yik947CYfDhftOdXd378ntPgAA5dmXwJBUeJRrJZ+kBwCwzr4FBgDgcOF5GAAAUwgMAIApBAYAwBQCAwBgCoEBADCFwAAAmEJgAABMITAAAKYQGAAAUwgMAIApBAYAwBQCAwBgypGlpaX97gMA4BDgbrUAAFMoSQEATCEwAACmEBgAAFMIDACAKQQGAMAUAgMAYAqBAQAwhcAAAJhCYAAATCEwAACmEBgAAFMIDACAKQQGAMAUAgMAYAqBAQAw5ch+dyAWi+n73/++5ufnZbPZ1NbWJrfbvd/dAgCss68PUJqamtLMzIzq6+vV2NiodDqtW7duqbGxUd3d3fvVLQDAJioywpifn9fCwoKWl5dls9lks9nU0NCghoYG2Ww2pVIpBQIBzc/Pq6urS21tbYVja2pqNDExoba2NtXW1laiewCAB2D5CGN+fl5XrlxRfX29nE6nJCmRSGhhYaFkv+rqanV3dxf2Kebz+fToo4/q9OnThdBIpVKF8AEA7D3LA+PrX/+6bDab+vr6Sran02klEgktLy/L4XBsGhR5iURCfr9f9+7d2/Ca0+nU888/T3AAwB6zPDC+8pWv6PHHH1dXV1fZbSUSCaXTaaXTadlsNqXTaU1MTDDHAQD7wPI5jMbGRi0sLFgSGJvNYSwuLiocDpfdNgBgdyy/DsPtdiuVSikYDFrdtCQVRhoVsRLQgGHIKPkZUGDF+vOMXE9a3CgAVJblgVFTU6O2tjbNzMwolUpZ3bwSiYQcDofl7UbHDBkdPmkoqEgkUvgJDkm+DkMjcxaea9KnuHXNAcCeqMiV3m63W+l0esPKqHKl02ktLi6qsbHR0naT1wfUc1XyXIpo9JS95DX7qVFFIhENNlt6SgA4dCoSGDabTdXV1ZaWjlKplC5evKhMJlNy3Ub5oro2HJLO+k2FQnTMkDEWLd04NyLDGNHa1qQC/cVlrdxruZJXz1UpNOzOvtYfUHLL49aPbLKvD1xPZvtRXDKbG6lsGQ3Ax57lk96pVEqTk5NKp9NqaGgou71EIqE33nhD8/PzqqqqUl9fn7VLalfiikvytDVZ1mR0zC2fvApGOmWXsh/mY1FF+js1GnlKgX63pp8JrhvNJBXo3+S4XkPxodJ9Q8Nu1V2KKNKfHR25Owz55JE/ElGTsqHW82pAT43l2gEAC1gaGPPz85qcnCx8sJd7pXYsFtPFixdVX1+v7u5utba2WtTTIstxhSTVWdZgUvGYJGfd2od186AiO41e5q7JN+uS90ZnyXHBobjcb95W8lTR9qLRkP3JdrkUUt2lQeUjr6nNI12d1u2VTnUeteyNAfiYs6wkFQ6HdeXKFTU0NOjll18uOyzS6XShvb6+vsqEhSQ56uSytEG7Ons80tWebHlofflqC8mluHSiXU+t+4C3H6uTZqd1e6sS09E6C8MOALZmSWCEw2FNTEyou7tb3d3dlpSMFhYWlE6nLbmeY1u5D9zxGXMf7KY0D+ZWWfnlyQXHwA7LaBN3Q9adHwAqoOzASKVSmpqaUltbm6WjgPyS3JqaGsva3FyTzgy5pKuXzU8Ux+IydxVFkwYjEfnPSqE3b297TFObZ9ORRHIpLqlOdZSWAOyzsgNjZmZGmUzG8mdY5IOiYhfpFbGfGpL3REi+jo0jgfxqpPxqpdrHXKUf7CsBDfSObzhmbXVTVNNXJdczT5VMQIfuJiRJyZXc+ZrPZPvwatGqqbkRuYdDcg2dkXVT8gDwYMqe9I7FYmpsbLT8ZoD5i/MSicS2Nyq0hl2dYxF1zo3I6HXLGC566UTRqiVlr8vw3zXU02HIl3/9hlfDHflL8aKSPBrvNVSIkbN+RQqrnLJzHL7eHhlXJckjf2RQTbKrcywo9bvlNnyF03sucQ0IgIOh7JsPvvTSS3K73TuOMBKJhGZmZrS6uqqGhgZT5auXXnppw/MyAAD7o+ySVFVV1Y77zM/P6/z580okErp//74mJiZ08eLFbctN+TkMbmMOAAdD2YHhdDq3vXtsIpHQ5ORkYbltX1+fXnjhBf3kJz/ZNjSmpqZUVVVlycV/AIDylR0YbW1tSqVSmpiY2PDa/Py8Ll68WHi6Xp7T6VRfX5+SyaTOnz+vcDhcGFEkEglduXJFCwsLli3RBQCUz5IHKOWvw3A6nWptbS3ceDAWi6mhoWHLD/78bdDXj1Cqq6vV1dVl+U0GAQAPzrIn7iUSCQWDwcIdahsaGtTW1mZ6hVMsFpOUnbMo9ypxAID1LH9EKwDgo6kitzcHAHz0EBgAAFMIDACAKQQGAMAUAgMAYAqBAQAwhcAAAJhCYAAATCEwAACmEBgAAFMIDACAKQQGAMAUAgMAYAqBAQAwhcAAAJhyZGlpab/7AAA4BP5/dH/FYHpN0ogAAAAASUVORK5CYII=;" vertex="1" parent="1">
          <mxGeometry x="90.00000000000001" y="712" width="231.58" height="300" as="geometry" />
        </mxCell>
        <mxCell id="fBHZpDKPESBAmvZvh5hl-23" value="" style="shape=image;html=1;verticalAlign=top;verticalLabelPosition=bottom;labelBackgroundColor=#ffffff;imageAspect=0;aspect=fixed;image=https://cdn2.iconfinder.com/data/icons/essential-web-5/50/ruler-measure-long-width-size-128.png;fontSize=12;strokeWidth=2;" vertex="1" parent="1">
          <mxGeometry x="354.4" y="949" width="80" height="80" as="geometry" />
        </mxCell>
        <mxCell id="fBHZpDKPESBAmvZvh5hl-28" style="edgeStyle=orthogonalEdgeStyle;rounded=0;orthogonalLoop=1;jettySize=auto;html=1;fontSize=12;" edge="1" parent="1" source="fBHZpDKPESBAmvZvh5hl-25">
          <mxGeometry relative="1" as="geometry">
            <mxPoint x="391" y="1112" as="targetPoint" />
          </mxGeometry>
        </mxCell>
        <mxCell id="fBHZpDKPESBAmvZvh5hl-25" value="Select Any Size" style="text;html=1;align=center;verticalAlign=middle;resizable=0;points=[];autosize=1;strokeColor=none;fillColor=none;fontSize=12;" vertex="1" parent="1">
          <mxGeometry x="336" y="1035" width="110" height="30" as="geometry" />
        </mxCell>
        <mxCell id="fBHZpDKPESBAmvZvh5hl-27" value="" style="shape=image;html=1;verticalAlign=top;verticalLabelPosition=bottom;labelBackgroundColor=#ffffff;imageAspect=0;aspect=fixed;image=https://cdn4.iconfinder.com/data/icons/essential-app-2/16/stop-watch-time-count-128.png;fontSize=12;strokeWidth=2;" vertex="1" parent="1">
          <mxGeometry x="342.9" y="1124" width="99" height="99" as="geometry" />
        </mxCell>
        <mxCell id="fBHZpDKPESBAmvZvh5hl-32" style="edgeStyle=orthogonalEdgeStyle;rounded=0;orthogonalLoop=1;jettySize=auto;html=1;fontSize=12;" edge="1" parent="1" source="fBHZpDKPESBAmvZvh5hl-29">
          <mxGeometry relative="1" as="geometry">
            <mxPoint x="390" y="1312" as="targetPoint" />
          </mxGeometry>
        </mxCell>
        <mxCell id="fBHZpDKPESBAmvZvh5hl-29" value="Select Quantity" style="text;html=1;align=center;verticalAlign=middle;resizable=0;points=[];autosize=1;strokeColor=none;fillColor=none;fontSize=12;" vertex="1" parent="1">
          <mxGeometry x="340" y="1223" width="100" height="30" as="geometry" />
        </mxCell>
        <mxCell id="fBHZpDKPESBAmvZvh5hl-30" value="" style="aspect=fixed;perimeter=ellipsePerimeter;html=1;align=center;shadow=0;dashed=0;fontColor=#4277BB;labelBackgroundColor=#ffffff;fontSize=12;spacingTop=3;image;image=img/lib/ibm/miscellaneous/retrieve_rank.svg;strokeWidth=2;" vertex="1" parent="1">
          <mxGeometry x="358.9" y="1322" width="60" height="60" as="geometry" />
        </mxCell>
        <mxCell id="fBHZpDKPESBAmvZvh5hl-35" style="edgeStyle=orthogonalEdgeStyle;rounded=0;orthogonalLoop=1;jettySize=auto;html=1;fontSize=12;" edge="1" parent="1" source="fBHZpDKPESBAmvZvh5hl-33">
          <mxGeometry relative="1" as="geometry">
            <mxPoint x="387" y="1482" as="targetPoint" />
          </mxGeometry>
        </mxCell>
        <mxCell id="fBHZpDKPESBAmvZvh5hl-33" value="Extract the Price" style="text;html=1;align=center;verticalAlign=middle;resizable=0;points=[];autosize=1;strokeColor=none;fillColor=none;fontSize=12;" vertex="1" parent="1">
          <mxGeometry x="332" y="1381" width="110" height="30" as="geometry" />
        </mxCell>
        <mxCell id="fBHZpDKPESBAmvZvh5hl-34" value="" style="shape=image;html=1;verticalAlign=top;verticalLabelPosition=bottom;labelBackgroundColor=#ffffff;imageAspect=0;aspect=fixed;image=https://cdn3.iconfinder.com/data/icons/document-icons-2/30/647702-excel-128.png;fontSize=12;strokeWidth=2;" vertex="1" parent="1">
          <mxGeometry x="350" y="1491" width="78" height="78" as="geometry" />
        </mxCell>
        <mxCell id="fBHZpDKPESBAmvZvh5hl-37" style="edgeStyle=orthogonalEdgeStyle;rounded=0;orthogonalLoop=1;jettySize=auto;html=1;fontSize=12;" edge="1" parent="1" source="fBHZpDKPESBAmvZvh5hl-36">
          <mxGeometry relative="1" as="geometry">
            <mxPoint x="351.4000000000001" y="704" as="targetPoint" />
            <Array as="points">
              <mxPoint x="60" y="1597" />
              <mxPoint x="60" y="704" />
            </Array>
          </mxGeometry>
        </mxCell>
        <mxCell id="fBHZpDKPESBAmvZvh5hl-36" value="Save it to the Excel File" style="text;html=1;align=center;verticalAlign=middle;resizable=0;points=[];autosize=1;strokeColor=none;fillColor=none;fontSize=12;" vertex="1" parent="1">
          <mxGeometry x="312" y="1582" width="150" height="30" as="geometry" />
        </mxCell>
        <mxCell id="fBHZpDKPESBAmvZvh5hl-46" style="edgeStyle=orthogonalEdgeStyle;rounded=0;orthogonalLoop=1;jettySize=auto;html=1;fontSize=12;" edge="1" parent="1" source="fBHZpDKPESBAmvZvh5hl-38" target="fBHZpDKPESBAmvZvh5hl-44">
          <mxGeometry relative="1" as="geometry" />
        </mxCell>
        <mxCell id="fBHZpDKPESBAmvZvh5hl-47" value="Yes" style="edgeLabel;html=1;align=center;verticalAlign=middle;resizable=0;points=[];fontSize=12;" vertex="1" connectable="0" parent="fBHZpDKPESBAmvZvh5hl-46">
          <mxGeometry x="-0.1359" relative="1" as="geometry">
            <mxPoint as="offset" />
          </mxGeometry>
        </mxCell>
        <mxCell id="fBHZpDKPESBAmvZvh5hl-38" value="" style="shape=image;html=1;verticalAlign=top;verticalLabelPosition=bottom;labelBackgroundColor=#ffffff;imageAspect=0;aspect=fixed;image=https://cdn3.iconfinder.com/data/icons/analytic-investment-and-balanced-scorecard/512/628_Balance_decision_justice_law_scale-128.png;fontSize=12;strokeWidth=2;" vertex="1" parent="1">
          <mxGeometry x="351" y="663" width="89" height="89" as="geometry" />
        </mxCell>
        <mxCell id="fBHZpDKPESBAmvZvh5hl-41" value="Extracted for&lt;br&gt;&amp;nbsp;Each Shape" style="text;html=1;align=center;verticalAlign=middle;resizable=0;points=[];autosize=1;strokeColor=none;fillColor=none;fontSize=12;" vertex="1" parent="1">
          <mxGeometry x="420" y="743" width="90" height="40" as="geometry" />
        </mxCell>
        <mxCell id="fBHZpDKPESBAmvZvh5hl-43" value="No" style="text;html=1;align=center;verticalAlign=middle;resizable=0;points=[];autosize=1;strokeColor=none;fillColor=none;fontSize=12;" vertex="1" parent="1">
          <mxGeometry x="357" y="745" width="40" height="30" as="geometry" />
        </mxCell>
        <mxCell id="fBHZpDKPESBAmvZvh5hl-44" value="" style="shape=image;html=1;verticalAlign=top;verticalLabelPosition=bottom;labelBackgroundColor=#ffffff;imageAspect=0;aspect=fixed;image=https://cdn1.iconfinder.com/data/icons/media-player-long-shadow/50/Stop-128.png;fontSize=12;strokeWidth=2;" vertex="1" parent="1">
          <mxGeometry x="707" y="1244" width="78" height="78" as="geometry" />
        </mxCell>
        <mxCell id="fBHZpDKPESBAmvZvh5hl-45" value="End" style="text;html=1;align=center;verticalAlign=middle;resizable=0;points=[];autosize=1;strokeColor=none;fillColor=none;fontSize=12;" vertex="1" parent="1">
          <mxGeometry x="725" y="1323" width="40" height="30" as="geometry" />
        </mxCell>
        <mxCell id="fBHZpDKPESBAmvZvh5hl-48" value="&lt;b&gt;* Repeat for all Available Size&lt;/b&gt;" style="text;html=1;align=center;verticalAlign=middle;resizable=0;points=[];autosize=1;strokeColor=none;fillColor=none;fontSize=12;" vertex="1" parent="1">
          <mxGeometry x="420" y="974" width="190" height="30" as="geometry" />
        </mxCell>
        <mxCell id="fBHZpDKPESBAmvZvh5hl-49" value="&lt;b&gt;* Repeat for all shape&lt;/b&gt;" style="text;html=1;align=center;verticalAlign=middle;resizable=0;points=[];autosize=1;strokeColor=none;fillColor=none;fontSize=12;" vertex="1" parent="1">
          <mxGeometry x="417" y="839" width="150" height="30" as="geometry" />
        </mxCell>
      </root>
    </mxGraphModel>
  </diagram>
</mxfile>
